<svg xmlns="http://www.w3.org/2000/svg" viewBox="0 0 24 24" fill="currentColor"><path d="M20 14Q20.4 14 20.72 14.28Q21.04 14.56 21.04 14.96V16.96H22.96Q23.44 16.96 23.72 17.28Q24 17.6 24 18Q24 18.4 23.72 18.72Q23.44 19.04 22.96 19.04H21.04V20.96Q21.04 21.44 20.72 21.72Q20.4 22 20 22Q19.6 22 19.28 21.72Q18.96 21.44 18.96 20.96V19.04H16.96Q16.56 19.04 16.28 18.72Q16 18.4 16 18Q16 17.6 16.28 17.28Q16.56 16.96 16.96 16.96H18.96V14.96Q18.96 14.56 19.28 14.28Q19.6 14 20 14ZM8 2Q10.16 2 12 3.08Q13.84 4.16 14.92 6Q16 7.84 16 10Q16 12.88 14.16 15.84Q12.8 18.08 10.64 20.08Q9.52 21.12 8.56 21.84Q8.32 22 8 22Q7.68 22 7.44 21.84Q6.48 21.12 5.36 20.08Q3.2 18.08 1.84 15.84Q0 12.88 0 10Q0 7.84 1.08 6Q2.16 4.16 4 3.08Q5.84 2 8 2ZM8 7.04Q6.72 7.04 5.84 7.88Q4.96 8.72 4.96 10Q4.96 11.28 5.84 12.16Q6.72 13.04 8 13.04Q9.28 13.04 10.12 12.16Q10.96 11.28 10.96 10Q10.96 8.72 10.12 7.88Q9.28 7.04 8 7.04Z"/></svg>
