<svg xmlns="http://www.w3.org/2000/svg" viewBox="0 0 24 24" fill="currentColor"><path d="M12 20.48Q8.88 20.48 6.36 19.76Q3.84 19.04 2.44 17.76Q1.04 16.48 1.04 14.96Q1.04 14.48 1.32 14.2Q1.6 13.92 2 13.92Q2.4 13.92 2.72 14.2Q3.04 14.48 3.04 14.96Q3.04 15.76 4.2 16.6Q5.36 17.44 7.44 17.96Q9.52 18.48 12 18.48Q14.48 18.48 16.56 17.96Q18.64 17.44 19.84 16.6Q21.04 15.76 21.04 14.96Q21.04 14.48 21.32 14.2Q21.6 13.92 22 13.92Q22.4 13.92 22.72 14.2Q23.04 14.48 23.04 14.96Q23.04 16.48 21.6 17.76Q20.16 19.04 17.64 19.76Q15.12 20.48 12 20.48ZM12 14.4Q9.76 14.4 7.72 14Q5.68 13.6 4.16 12.8H4.08Q2.64 12.08 1.84 11.04Q1.04 10 1.04 8.88Q1.04 6.96 3.16 5.48Q5.28 4 8.88 3.52Q9.36 3.44 9.68 3.76Q10 4.08 10 4.48V10.56Q10 10.96 9.76 11.24Q9.52 11.52 9.12 11.6Q8.24 11.68 7.52 11.92Q9.6 12.4 12 12.4Q14.4 12.4 16.48 11.92Q15.6 11.68 14.88 11.6Q14.48 11.52 14.24 11.24Q14 10.96 14 10.56V4.48Q14 4.08 14.32 3.8Q14.64 3.52 14.96 3.52H15.12Q18.72 4 20.88 5.48Q23.04 6.96 23.04 8.88Q23.04 10 22.24 11.04Q21.44 12.08 19.92 12.8Q18.32 13.6 16.28 14Q14.24 14.4 12 14.4ZM8 5.68Q5.68 6.24 4.32 7.12Q2.96 8 2.96 8.88Q2.96 9.36 3.4 9.84Q3.84 10.32 4.56 10.8Q6.08 10.08 8 9.76ZM16 9.68Q17.92 10.08 19.44 10.8Q20.16 10.32 20.6 9.84Q21.04 9.36 21.04 8.88Q21.04 8 19.68 7.12Q18.32 6.24 16 5.68ZM22 15.92Q21.6 15.92 21.32 15.64Q21.04 15.36 21.04 14.96V8.88Q21.04 8.48 21.32 8.16Q21.6 7.84 22 7.84Q22.4 7.84 22.72 8.16Q23.04 8.48 23.04 8.88V14.96Q23.04 15.36 22.72 15.64Q22.4 15.92 22 15.92ZM2 15.92Q1.6 15.92 1.28 15.64Q0.96 15.36 0.96 14.96V8.88Q0.96 8.48 1.28 8.16Q1.6 7.84 2 7.84Q2.4 7.84 2.72 8.16Q3.04 8.48 3.04 8.88V14.96Q3.04 15.36 2.72 15.64Q2.4 15.92 2 15.92Z"/></svg>
